<?xml version="1.0" encoding="UTF-8" standalone="no" ?>
<!DOCTYPE svg PUBLIC "-//W3C//DTD SVG 1.1//EN" "http://www.w3.org/Graphics/SVG/1.1/DTD/svg11.dtd">
<svg xmlns="http://www.w3.org/2000/svg" xmlns:xlink="http://www.w3.org/1999/xlink" version="1.1" width="185" height="289" viewBox="0 0 185 289" xml:space="preserve">
<desc>Created with Fabric.js 5.3.0</desc>
<defs>
</defs>
<g transform="matrix(0.7567738264 0 0 0.7567738264 82.7866888778 145.2426338488)" id="DTkZVdfMqzmjFGSVNJ2-u"  >
<path style="stroke: rgb(221,32,119); stroke-width: 0; stroke-dasharray: none; stroke-linecap: butt; stroke-dashoffset: 0; stroke-linejoin: miter; stroke-miterlimit: 4; fill: rgb(0,173,181); fill-rule: nonzero; opacity: 1;" vector-effect="non-scaling-stroke"  transform=" translate(-117.64635, -174.37732)" d="M 27.53807 0 L 235.2927 0 L 235.2927 206.75463 L 235.2927 206.75463 L 235.2927 206.75464 C 235.2927 206.75933 235.2927 206.76402 235.2927 206.76871 L 235.2927 207.75463 L 235.28925 207.75463 C 234.75094 285.67898 171.3431 348.75464 93.2927 348.75464 C 93.2927 348.75464 93.2927 348.75464 93.29269 348.75464 L 93.29269 293.67851 C 93.29269 293.67851 93.29269 293.67851 93.2927 293.67851 C 140.94091 293.67851 179.67435999999998 255.27651000000003 180.21093 207.75463000000002 L 27.538070000000005 207.75463000000002 L 27.538070000000005 187.18727 L 3.552713678800501e-15 187.18727 L 3.552713678800501e-15 187.18726 L 27.538070000000005 187.18726 z" stroke-linecap="round" />
</g>
<g transform="matrix(1 0 0 1 668.9458921462 1086.1844532692)" style="" id="-9bJQUUp53njb3o6OTe8Z"  >
		<text xml:space="preserve" font-family="Sunflower" font-size="417" font-style="normal" font-weight="normal" line-height="1" style="stroke: none; stroke-width: 1; stroke-dasharray: none; stroke-linecap: butt; stroke-dashoffset: 0; stroke-linejoin: miter; stroke-miterlimit: 4; fill: rgb(73,66,228); fill-rule: nonzero; opacity: 1; white-space: pre;" ><tspan x="-463.5" y="-98.89862" >쉼표</tspan></text>
</g>
</svg>